<mxfile host="app.diagrams.net" agent="Mozilla/5.0 (Windows NT 10.0; Win64; x64) AppleWebKit/537.36 (KHTML, like Gecko) Chrome/128.0.0.0 Safari/537.36" version="24.7.10">
  <diagram name="Page-1" id="1oNv3A5SWaV6W003-1Rp">
    <mxGraphModel dx="1235" dy="655" grid="1" gridSize="10" guides="1" tooltips="1" connect="1" arrows="1" fold="1" page="1" pageScale="1" pageWidth="827" pageHeight="1169" math="0" shadow="0">
      <root>
        <mxCell id="0" />
        <mxCell id="1" parent="0" />
        <mxCell id="hDX6cRK_n_KQG7TRBSU7-5" value="OctreeCell" style="swimlane;fontStyle=1;align=center;verticalAlign=top;childLayout=stackLayout;horizontal=1;startSize=26;horizontalStack=0;resizeParent=1;resizeParentMax=0;resizeLast=0;collapsible=1;marginBottom=0;whiteSpace=wrap;html=1;" parent="1" vertex="1">
          <mxGeometry x="150" y="264" width="370" height="330" as="geometry" />
        </mxCell>
        <mxCell id="hDX6cRK_n_KQG7TRBSU7-6" value="bool isMaster&lt;div&gt;int splitMinQuantity&lt;/div&gt;&lt;div&gt;FBox cellBox&lt;/div&gt;&lt;div&gt;TArray&amp;lt;OctreeCell&amp;gt; allOctreeLeaves&lt;/div&gt;&lt;div&gt;TObjectPtr&amp;lt;UWorld&amp;gt; subLevel&lt;/div&gt;&lt;div&gt;TArray&amp;lt;Actor*&amp;gt; allActors&amp;nbsp;&lt;/div&gt;&lt;div&gt;&amp;nbsp;&lt;/div&gt;&lt;div&gt;&lt;br&gt;&lt;/div&gt;" style="text;strokeColor=none;fillColor=none;align=left;verticalAlign=top;spacingLeft=4;spacingRight=4;overflow=hidden;rotatable=0;points=[[0,0.5],[1,0.5]];portConstraint=eastwest;whiteSpace=wrap;html=1;" parent="hDX6cRK_n_KQG7TRBSU7-5" vertex="1">
          <mxGeometry y="26" width="370" height="154" as="geometry" />
        </mxCell>
        <mxCell id="hDX6cRK_n_KQG7TRBSU7-7" value="" style="line;strokeWidth=1;fillColor=none;align=left;verticalAlign=middle;spacingTop=-1;spacingLeft=3;spacingRight=3;rotatable=0;labelPosition=right;points=[];portConstraint=eastwest;strokeColor=inherit;" parent="hDX6cRK_n_KQG7TRBSU7-5" vertex="1">
          <mxGeometry y="180" width="370" height="8" as="geometry" />
        </mxCell>
        <mxCell id="hDX6cRK_n_KQG7TRBSU7-8" value="UFUNCTION(BlueprintCallable) void UpdateOctree();&lt;div&gt;void SwitchSubLevelState(const bool _state);&lt;/div&gt;&lt;div&gt;void AddActorToLevel(Actor* _actor);&lt;/div&gt;&lt;div&gt;void RemoveActorOfLevel(Actor* _actor);&lt;/div&gt;" style="text;strokeColor=none;fillColor=none;align=left;verticalAlign=top;spacingLeft=4;spacingRight=4;overflow=hidden;rotatable=0;points=[[0,0.5],[1,0.5]];portConstraint=eastwest;whiteSpace=wrap;html=1;" parent="hDX6cRK_n_KQG7TRBSU7-5" vertex="1">
          <mxGeometry y="188" width="370" height="142" as="geometry" />
        </mxCell>
        <mxCell id="QXTzusFkveuO5Ewc0l5o-1" value="OctreeComponent" style="swimlane;fontStyle=1;align=center;verticalAlign=top;childLayout=stackLayout;horizontal=1;startSize=26;horizontalStack=0;resizeParent=1;resizeParentMax=0;resizeLast=0;collapsible=1;marginBottom=0;whiteSpace=wrap;html=1;" vertex="1" parent="1">
          <mxGeometry x="800" y="380" width="260" height="164" as="geometry" />
        </mxCell>
        <mxCell id="QXTzusFkveuO5Ewc0l5o-2" value="&lt;div&gt;event onLoadStateChange(bool&amp;nbsp; _state)&lt;/div&gt;&lt;div&gt;&lt;br&gt;&lt;/div&gt;TObjectPtr&amp;lt;AOctreeCell&amp;gt; owner&lt;div&gt;bool customLoad&lt;/div&gt;&lt;div&gt;&lt;br&gt;&lt;div&gt;&lt;br&gt;&lt;/div&gt;&lt;/div&gt;" style="text;strokeColor=none;fillColor=none;align=left;verticalAlign=top;spacingLeft=4;spacingRight=4;overflow=hidden;rotatable=0;points=[[0,0.5],[1,0.5]];portConstraint=eastwest;whiteSpace=wrap;html=1;" vertex="1" parent="QXTzusFkveuO5Ewc0l5o-1">
          <mxGeometry y="26" width="260" height="104" as="geometry" />
        </mxCell>
        <mxCell id="QXTzusFkveuO5Ewc0l5o-3" value="" style="line;strokeWidth=1;fillColor=none;align=left;verticalAlign=middle;spacingTop=-1;spacingLeft=3;spacingRight=3;rotatable=0;labelPosition=right;points=[];portConstraint=eastwest;strokeColor=inherit;" vertex="1" parent="QXTzusFkveuO5Ewc0l5o-1">
          <mxGeometry y="130" width="260" height="8" as="geometry" />
        </mxCell>
        <mxCell id="QXTzusFkveuO5Ewc0l5o-4" value="+ method(type): type" style="text;strokeColor=none;fillColor=none;align=left;verticalAlign=top;spacingLeft=4;spacingRight=4;overflow=hidden;rotatable=0;points=[[0,0.5],[1,0.5]];portConstraint=eastwest;whiteSpace=wrap;html=1;" vertex="1" parent="QXTzusFkveuO5Ewc0l5o-1">
          <mxGeometry y="138" width="260" height="26" as="geometry" />
        </mxCell>
      </root>
    </mxGraphModel>
  </diagram>
</mxfile>
